<mxfile host="app.diagrams.net" modified="2023-07-17T08:35:16.127Z" agent="Mozilla/5.0 (Windows NT 10.0; Win64; x64) AppleWebKit/537.36 (KHTML, like Gecko) Chrome/114.0.0.0 Safari/537.36" version="21.6.2" etag="CxZI9uzQDgbIyvQacvgO" type="github">
  <diagram name="Page-1" id="W_IT2--gFIwunK-3WiE4">
    <mxGraphModel>
      <root>
        <mxCell id="0" />
        <mxCell id="1" parent="0" />
      </root>
    </mxGraphModel>
  </diagram>
</mxfile>
